HIERARCHY
ROOT Hips
{
	OFFSET 59.296299 -6.087015 92.875397
	CHANNELS 6 Xposition Yposition Zposition Xrotation Yrotation Zrotation
	JOINT spine
	{
		OFFSET 0.000000 -0.429886 7.475601
		CHANNELS 3 Xrotation Yrotation Zrotation
		JOINT spine1
		{
			OFFSET 0.000000 -0.000002 9.923012
			CHANNELS 3 Xrotation Yrotation Zrotation
			JOINT spine2
			{
				OFFSET 0.000000 -0.000001 9.508041
				CHANNELS 3 Xrotation Yrotation Zrotation
				JOINT Neck
				{
					OFFSET 0.000000 -1.163844 24.411095
					CHANNELS 3 Xrotation Yrotation Zrotation
					JOINT Head
					{
						OFFSET 0.000000 -0.000001 7.375229
						CHANNELS 3 Xrotation Yrotation Zrotation
						End Site
						{
							OFFSET 0.000000 5.887407 17.852203
						}
					}
				}
				JOINT RightShoulder
				{
					OFFSET -4.003559 0.557467 10.267906
					CHANNELS 3 Xrotation Yrotation Zrotation
					JOINT RightArm
					{
						OFFSET 0.000000 -0.000002 13.467300
						CHANNELS 3 Xrotation Yrotation Zrotation
						JOINT RightArmRoll
						{
							OFFSET 0.000000 -0.000001 6.798584
							CHANNELS 3 Xrotation Yrotation Zrotation
							JOINT RightForeArm
							{
								OFFSET 0.000000 -0.000003 19.801804
								CHANNELS 3 Xrotation Yrotation Zrotation
								JOINT RightForeArmRoll
								{
									OFFSET 0.000000 -0.000001 7.629059
									CHANNELS 3 Xrotation Yrotation Zrotation
									JOINT RightHand
									{
										OFFSET 0.000000 -0.000002 15.309799
										CHANNELS 3 Xrotation Yrotation Zrotation
										End Site
										{
											OFFSET 0.000000 0.000000 0.100006
										}
									}
								}
							}
						}
					}
				}
				JOINT LeftShoulder
				{
					OFFSET 4.003559 0.557467 10.267906
					CHANNELS 3 Xrotation Yrotation Zrotation
					JOINT LeftArm
					{
						OFFSET 0.000000 -0.000002 13.467300
						CHANNELS 3 Xrotation Yrotation Zrotation
						JOINT LeftArmRoll
						{
							OFFSET 0.000000 -0.000001 6.798584
							CHANNELS 3 Xrotation Yrotation Zrotation
							JOINT LeftForeArm
							{
								OFFSET 0.000000 -0.000003 19.801804
								CHANNELS 3 Xrotation Yrotation Zrotation
								JOINT LeftForeArmRoll
								{
									OFFSET 0.000000 -0.000001 7.629059
									CHANNELS 3 Xrotation Yrotation Zrotation
									JOINT LeftHand
									{
										OFFSET 0.000000 -0.000002 15.309799
										CHANNELS 3 Xrotation Yrotation Zrotation
										End Site
										{
											OFFSET 0.000000 0.000000 0.100006
										}
									}
								}
							}
						}
					}
				}
			}
		}
	}
	JOINT RightUpLeg
	{
		OFFSET -6.626091 1.019270 -1.215050
		CHANNELS 3 Xrotation Yrotation Zrotation
		JOINT RightUpLegRoll
		{
			OFFSET 0.000000 -0.000003 17.951698
			CHANNELS 3 Xrotation Yrotation Zrotation
			JOINT RightLeg
			{
				OFFSET 0.000000 0.000003 -22.230400
				CHANNELS 3 Xrotation Yrotation Zrotation
				JOINT RightLegRoll
				{
					OFFSET 0.000000 -0.000003 22.303200
					CHANNELS 3 Xrotation Yrotation Zrotation
					JOINT RightFoot
					{
						OFFSET 0.000000 -0.000003 18.563599
						CHANNELS 3 Xrotation Yrotation Zrotation
						JOINT RightToeBase
						{
							OFFSET 0.000000 -0.000002 15.518295
							CHANNELS 3 Xrotation Yrotation Zrotation
							End Site
							{
								OFFSET 0.006577 0.866261 7.515396
							}
						}
					}
				}
			}
		}
	}
	JOINT LeftUpLeg
	{
		OFFSET 6.626087 1.019270 -1.215050
		CHANNELS 3 Xrotation Yrotation Zrotation
		JOINT LeftUpLegRoll
		{
			OFFSET 0.000000 -0.000003 17.951797
			CHANNELS 3 Xrotation Yrotation Zrotation
			JOINT LeftLeg
			{
				OFFSET 0.000000 -0.000004 22.230293
				CHANNELS 3 Xrotation Yrotation Zrotation
				JOINT LeftLegRoll
				{
					OFFSET 0.000000 -0.000004 22.509308
					CHANNELS 3 Xrotation Yrotation Zrotation
					JOINT LeftFoot
					{
						OFFSET 0.000000 -0.000003 18.357498
						CHANNELS 3 Xrotation Yrotation Zrotation
						JOINT LeftToeBase
						{
							OFFSET 0.000000 -0.000002 15.518295
							CHANNELS 3 Xrotation Yrotation Zrotation
							End Site
							{
								OFFSET -0.029480 0.866261 7.515396
							}
						}
					}
				}
			}
		}
	}
}
MOTION
Frames: 6
Frame Time: 0.041667
58.039890 -5.750031 92.956108 -9.589797 -1.379369 -4.691467 0.783920 0.110812 0.280688 5.579760 0.217270 0.558506 7.224814 0.223980 0.555736 3.408236 20.463054 -2.522674 -0.432480 -20.743467 -3.114752 0.669316 -56.331490 1.093220 -23.935191 -116.476678 0.901642 -0.000000 -0.000000 -0.000002 0.019869 -1.888319 -1.429115 -0.000000 0.000005 -3.054121 -5.000144 -7.999889 0.000034 -10.170968 82.648301 13.245614 -92.842932 98.697135 75.030352 -0.000000 0.000015 0.000005 3.527287 9.702559 0.402359 -0.000001 -0.000003 3.000001 -5.000230 7.998832 -0.000147 -3.197607 -175.129547 2.200662 -179.999991 0.000006 -1.289999 156.280110 -0.643617 -1.124781 -0.000004 0.000004 0.396246 68.901951 6.923879 2.050712 29.021682 -7.201757 2.638009 3.568981 -176.143475 3.968472 -0.000004 -0.000004 -1.107920 -9.484761 4.466717 0.608771 0.000004 -0.000001 -0.105277 70.543232 -6.785907 -2.301218 25.456957 7.355615 -0.000012 
58.048687 -5.752571 92.956306 -9.581363 -1.391206 -4.705915 0.781569 0.112953 0.282320 5.575993 0.222365 0.561724 7.221047 0.229111 0.558901 3.441614 20.473287 -2.513635 -0.457907 -20.773192 -3.102421 0.670948 -56.297390 1.099681 -24.065477 -116.492414 0.752763 -0.000002 0.000000 -0.000001 0.019846 -1.896090 -1.428772 -0.000001 0.000005 -3.054152 -5.000144 -7.999890 0.000035 -10.263275 82.635727 13.341009 -92.991496 98.759071 75.170733 -0.000000 0.000014 0.000005 3.522874 9.687181 0.403315 -0.000000 -0.000002 3.000001 -5.000232 7.998835 -0.000147 -3.223848 -175.115709 2.199320 -179.999991 0.000005 -1.289999 156.263650 -0.634382 -1.123945 -0.000005 0.000004 0.396243 68.904376 6.923878 2.050759 29.015023 -7.201779 2.646192 3.561387 -176.121482 3.986734 -0.000004 -0.000004 -1.107921 -9.475519 4.460464 0.607917 0.000004 -0.000001 -0.105278 70.544079 -6.785888 -2.300764 25.456959 7.355616 -0.000011 
58.053391 -5.736839 92.950211 -9.572660 -1.403322 -4.720890 0.779160 0.115137 0.284005 5.572196 0.227576 0.565042 7.217250 0.234358 0.562168 3.475099 20.484209 -2.504256 -0.484149 -20.804124 -3.089872 0.672752 -56.261774 1.106546 -24.194799 -116.510255 0.606215 -0.000001 0.000000 -0.000002 0.019814 -1.902570 -1.428501 0.000000 0.000005 -3.054202 -5.000145 -7.999888 0.000032 -10.360921 82.621581 13.441895 -93.129875 98.821861 75.301388 -0.000000 0.000014 0.000004 3.516748 9.671810 0.404342 -0.000000 -0.000003 3.000001 -5.000230 7.998834 -0.000148 -3.250800 -175.100861 2.197828 -179.999991 0.000006 -1.289999 156.246888 -0.626061 -1.124509 -0.000004 0.000004 0.396236 68.906794 6.923876 2.050808 29.008151 -7.201811 2.654530 3.553532 -176.098492 4.005466 -0.000004 -0.000004 -1.107921 -9.466028 4.454046 0.607029 0.000004 -0.000000 -0.105276 70.545035 -6.785901 -2.300207 25.456959 7.355615 -0.000011 
58.060692 -5.737692 92.949806 -9.563767 -1.415636 -4.736241 0.776714 0.117352 0.285725 5.568367 0.232867 0.568433 7.213423 0.239688 0.565503 3.508653 20.495622 -2.494661 -0.510974 -20.835844 -3.077195 0.674676 -56.225161 1.113693 -24.323552 -116.529202 0.461173 -0.000000 -0.000000 -0.000002 0.019774 -1.908170 -1.428302 -0.000000 0.000005 -3.054261 -5.000144 -7.999889 0.000031 -10.462345 82.606507 13.546673 -93.260933 98.885266 75.424966 0.000000 0.000015 0.000006 3.509415 9.656451 0.405418 -0.000001 -0.000003 3.000001 -5.000231 7.998833 -0.000147 -3.278256 -175.085001 2.196201 -179.999991 0.000006 -1.289999 156.229936 -0.616828 -1.124664 -0.000004 0.000004 0.396226 68.909335 6.923879 2.050749 29.000877 -7.201856 2.662928 3.545502 -176.075501 4.024479 -0.000004 -0.000004 -1.107919 -9.456344 4.447531 0.606121 0.000003 -0.000001 -0.105276 70.545998 -6.785915 -2.299651 25.456955 7.355614 -0.000012 
58.065994 -5.725692 92.949089 -9.554766 -1.428079 -4.751806 0.774244 0.119584 0.287467 5.564538 0.238204 0.571865 7.209596 0.245063 0.568881 3.542261 20.507320 -2.484946 -0.538128 -20.868062 -3.064448 0.676664 -56.187851 1.120995 -24.451922 -116.549282 0.317082 -0.000001 -0.000000 -0.000002 0.019728 -1.913250 -1.428122 -0.000001 0.000005 -3.054320 -5.000143 -7.999890 0.000034 -10.565480 82.590743 13.653227 -93.387428 98.949032 75.544167 -0.000001 0.000013 0.000003 3.501404 9.641089 0.406517 -0.000001 -0.000002 3.000000 -5.000230 7.998834 -0.000147 -3.305992 -175.070166 2.194593 -179.999991 0.000005 -1.289999 156.212778 -0.607597 -1.123809 -0.000005 0.000004 0.396220 68.911862 6.923884 2.050792 28.993603 -7.201908 2.671401 3.537369 -176.052511 4.043648 -0.000004 -0.000004 -1.107920 -9.446567 4.440937 0.605201 0.000004 -0.000000 -0.105276 70.547071 -6.785932 -2.299088 25.456955 7.355613 -0.000011 
58.073593 -5.723191 92.947105 -9.545734 -1.440542 -4.767420 0.771767 0.121821 0.289213 5.560700 0.243554 0.575308 7.205748 0.250449 0.572271 3.575885 20.519017 -2.475210 -0.565383 -20.900270 -3.051715 0.678668 -56.150439 1.128336 -24.579281 -116.570388 0.174287 -0.000000 0.000000 -0.000000 0.019681 -1.918201 -1.427955 -0.000000 0.000005 -3.054390 -5.000144 -7.999889 0.000032 -10.668732 82.574842 13.759904 -93.511444 99.012922 75.660936 -0.000000 0.000014 0.000005 3.493213 9.625732 0.407621 -0.000001 -0.000003 3.000001 -5.000230 7.998834 -0.000149 -3.333811 -175.055344 2.192953 -179.999991 0.000005 -1.290000 156.195525 -0.598367 -1.123958 -0.000005 0.000004 0.396208 68.914403 6.923885 2.050735 28.986134 -7.201976 2.679860 3.529209 -176.029507 4.062858 -0.000004 -0.000004 -1.107921 -9.436753 4.434336 0.604280 0.000004 -0.000001 -0.105278 70.548129 -6.785912 -2.298521 25.456957 7.355614 -0.000011 
